<svg height="512pt" viewBox="0 0 512.01007 512" width="512pt" xmlns="http://www.w3.org/2000/svg"><path d="m154.675781 213.339844h-138.664062c-8.832031 0-16.0000002-7.167969-16.0000002-16v-138.667969c0-8.832031 7.1679692-16 16.0000002-16s16 7.167969 16 16v122.667969h122.664062c8.832031 0 16 7.167968 16 16 0 8.832031-7.167969 16-16 16zm0 0"/><path d="m389.34375 272.003906h-133.332031c-8.832031 0-16-7.167968-16-16v-133.332031c0-8.832031 7.167969-16 16-16s16 7.167969 16 16v117.332031h117.332031c8.832031 0 16 7.167969 16 16 0 8.832032-7.167969 16-16 16zm0 0"/><path d="m256.011719 512.003906c-68.480469 0-132.757813-26.664062-180.929688-75.113281-6.25-6.273437-6.207031-16.40625.042969-22.636719 6.25-6.226562 16.382812-6.207031 22.632812.042969 42.15625 42.390625 98.347657 65.707031 158.253907 65.707031 123.519531 0 224-100.480468 224-224 0-123.519531-100.480469-224-224-224-105.34375 0-199.746094 71.167969-224.472657 169.261719-2.175781 8.574219-11.007812 13.757813-19.433593 11.582031-8.574219-2.15625-13.757813-10.859375-11.625-19.433594 28.285156-112.066406 135.742187-193.41015575 255.53125-193.41015575 141.160156 0 256 114.83984375 256 255.99999975 0 141.164063-114.839844 256-256 256zm0 0"/></svg>